<svg height="187" viewBox="0 0 764 187" width="764" xmlns="http://www.w3.org/2000/svg"><g fill="none" fill-rule="evenodd"><path d="m305 48.24c-11.912782-.1325482-21.677451 9.4172181-21.81 21.33-.132548 11.9127819 9.417218 21.6774515 21.33 21.81h.89c11.912782-.1132184 21.478218-9.8622179 21.365-21.775s-9.862218-21.4782184-21.775-21.365zm253 23.26c-.009058 8.7013517-2.188151 17.2630558-6.34 24.91h-21.91-22.26v-25.07h24.51c.039033-13.5943012-10.906181-24.6690707-24.5-24.79-13.5 0-24.5 11.2-24.5 24.95s11 25 24.46 25v26.5c-27.81 0-50.46-23.1-50.46-51.5s22.65-51.5 50.5-51.5 50.5 23.1 50.5 51.5zm55-18.9h-21.73v20.61c.027559 11.9169631 9.693006 21.5645198 21.61 21.57v26.22c-26.241645.001548-47.595003-21.1199025-47.88-47.36v-71.64h26.26v24.74h21.74zm15 66.4v-93h27v93zm-290-14.56c17.939016 17.06393 19.906236 44.991433 4.536467 64.401642-15.36977 19.410209-43.004486 23.897731-63.726467 10.348358l14.42-21.94c7.700423 5.079774 17.776998 4.708522 25.082742-.924125 7.305745-5.632647 10.227981-15.283332 7.274069-24.022612s-11.131923-14.638037-20.356811-14.683263h-.51c-1.367474.026753-2.729711.177369-4.07.45-5.620146 1.152217-10.548 4.499846-13.69 9.3l-21.96-14.37c2.025899-3.086597 4.401653-5.928778 7.08-8.47-14.307512-13.4851186-18.944709-34.3320186-11.702737-52.6106173 7.241971-18.2785987 24.898668-30.2926692 44.559609-30.319504s37.350367 11.9389926 44.642208 30.1977545 2.711568 39.1182425-11.55908 52.6423668zm-114 20.56h-24.5c-27.85 0-50.5-23.1-50.5-51.5s22.65-51.5 50.5-51.5 50.5 23.1 50.5 51.5v25h-26v-25c.116506-13.6504606-10.849628-24.8135372-24.5-24.94-13.48 0-24.45 11.19-24.45 24.94s11 24.94 24.45 24.94h24.5zm538.51-64.23c5.203595 21.063976-3.940456 43.058487-22.543625 54.224982-18.603168 11.166494-42.314 8.893025-58.456375-5.604982l16.32-18.27c5.705301 5.1218834 13.451403 7.3310955 21.000162 5.9893109s14.059063-6.0850591 17.649838-12.8593109h-70c-5.207168-21.0652387 3.933006-43.0633966 22.53492-54.2360275s42.315377-8.9069356 58.46508 5.5860275l-16.35 18.28c-5.708245-5.1243037-13.459074-7.3328591-21.010967-5.9869577-7.551894 1.3459013-14.062524 6.0961394-17.649033 12.8769577zm-373.51-9.77v-27.35c14.244314-3.860496 29.473706-.8896018 41.222669 8.0415682 11.748963 8.9311699 18.6861 22.8105322 18.777331 37.5684318v50.74h-26.09v-50.31c.00556-11.8656785-9.594366-21.4969186-21.46-21.53-4.054511-.0132077-8.027935 1.1354415-11.45 3.31v67.53h-27v-68zm-305.49.79c2.2554307 5.5508966 3.439614 11.4785993 3.49 17.47v50.74h-26.09v-50.31c.0055476-11.8695721-9.6004586-21.5024233-21.47-21.53-4.4641875-.0084041-8.8173196 1.3913168-12.44 4v66.84h-27v-68h27v-27.35c22.7625093-6.1575751 46.598046 5.3047642 56 26.93v-26.93c14.2443145-3.860496 29.473706-.8896018 41.222669 8.0415682 11.748963 8.9311699 18.6861 22.8105322 18.777331 37.5684318v50.74h-26.09v-50.31c.005548-11.8695721-9.600459-21.5024233-21.47-21.53-4.2497485-.007225-8.4045055 1.2569634-11.93 3.63z" fill="#32383c"/><g fill-rule="nonzero"><path d="m330 0h28v28h-28z" fill="#e078d6"/><path d="m224 125h26.56v26.56h-26.56z" fill="#74e24a"/></g></g></svg>